<?xml version="1.0" encoding="UTF-8" standalone="no"?>
<!DOCTYPE svg PUBLIC "-//W3C//DTD SVG 1.1//EN" "http://www.w3.org/Graphics/SVG/1.1/DTD/svg11.dtd">
<svg width="100%" height="100%" viewBox="0 0 380 380" version="1.1" xmlns="http://www.w3.org/2000/svg" xmlns:xlink="http://www.w3.org/1999/xlink" xml:space="preserve" xmlns:serif="http://www.serif.com/" style="fill-rule:evenodd;clip-rule:evenodd;stroke-linejoin:round;stroke-miterlimit:2;">
    <g transform="matrix(1.438142,0,0,1.438142,-75.14925,-72.290779)">
        <g transform="matrix(0.947368,0,0,0.947368,4.792456,3.011589)">
            <path d="M189.56,57.23C135.16,57.23 91.07,101.33 91.07,155.72C91.04,154.66 91.07,156.78 91.07,155.72L91.14,288.5C91.67,306.78 106.65,321.44 125.06,321.44C143.47,321.44 158.59,306.78 159.12,288.5L159.12,253.57L189.55,253.57C243.95,253.57 288.05,210.11 288.05,155.71C288.05,101.31 243.95,57.22 189.56,57.22L189.56,57.23ZM159.14,185.58L159.14,155.72C159.14,138.98 172.82,125.41 189.56,125.41C206.3,125.41 219.87,138.98 219.87,155.72C219.87,172.46 206.3,185.58 189.56,185.58L159.12,185.6L159.14,185.58Z" style="fill:rgb(231,34,100);fill-rule:nonzero;"/>
        </g>
        <g transform="matrix(0.947368,0,0,0.947368,4.792456,3.011589)">
            <path d="M124.24,253.58L159.1,253.58L159.1,288.51L158.94,288.51C158.41,306.79 143.44,321.45 125.04,321.45C106.64,321.45 91.66,306.79 91.13,288.51L91.12,288.51L91.12,288.07C91.12,287.89 91.11,287.7 91.11,287.52C91.11,287.34 91.12,287.16 91.12,286.98L91.12,284.52C92.16,268.17 107.6,253.59 124.23,253.59L124.24,253.58Z" style="fill:rgb(29,29,27);fill-opacity:0.15;fill-rule:nonzero;"/>
        </g>
        <g transform="matrix(0.947368,0,0,0.947368,4.792456,3.011589)">
            <g opacity="0.75">
                <g opacity="0.05">
                    <path d="M91.17,211.57L91.17,253.57C91.17,216.57 122.26,186.12 159.16,185.61L159.16,172.22C131.72,175.11 107.44,189.87 91.17,211.58L91.17,211.57Z" style="fill-opacity:0.5;fill-rule:nonzero;"/>
                    <path d="M91.22,285.17C99.23,279.29 108.95,275.83 119.45,275.83L159.17,275.83L159.17,253.57L125.14,253.57C107.16,253.57 92.47,267.52 91.22,285.17Z" style="fill-rule:nonzero;"/>
                </g>
                <g opacity="0.05">
                    <path d="M159.17,185.61L159.17,173.44C131.51,176.15 107.1,191.24 91.18,213.4L91.18,253.57C91.18,216.57 122.27,186.12 159.17,185.61Z" style="fill-opacity:0.5;fill-rule:nonzero;"/>
                    <path d="M125.14,253.57C107.65,253.57 93.26,266.77 91.35,283.76C99.35,277.51 109.24,273.81 119.97,273.81L159.17,273.81L159.17,253.57L125.14,253.57Z" style="fill-rule:nonzero;"/>
                </g>
                <g opacity="0.05">
                    <path d="M159.17,185.61L159.17,174.67C131.26,177.2 106.7,192.66 91.18,215.31L91.18,253.57C91.18,216.57 122.27,186.12 159.17,185.61Z" style="fill-opacity:0.5;fill-rule:nonzero;"/>
                    <path d="M125.14,253.57C108.14,253.57 94.07,266.04 91.54,282.33C99.5,275.73 109.55,271.78 120.49,271.78L159.17,271.78L159.17,253.57L125.14,253.57Z" style="fill-rule:nonzero;"/>
                </g>
                <g opacity="0.05">
                    <path d="M159.17,185.62L159.17,175.9C130.97,178.23 106.24,194.11 91.18,217.32L91.18,253.58C91.18,216.58 122.27,186.13 159.17,185.62Z" style="fill-opacity:0.5;fill-rule:nonzero;"/>
                    <path d="M125.14,253.57C108.63,253.57 94.87,265.34 91.78,280.94C99.67,273.97 109.86,269.76 121,269.76L159.16,269.76L159.16,253.57L125.13,253.57L125.14,253.57Z" style="fill-rule:nonzero;"/>
                </g>
                <g opacity="0.05">
                    <path d="M159.17,185.62L159.17,177.14C130.64,179.26 105.72,195.63 91.18,219.45L91.18,253.58C91.18,216.58 122.27,186.13 159.17,185.62Z" style="fill-opacity:0.5;fill-rule:nonzero;"/>
                    <path d="M125.14,253.57C109.12,253.57 95.71,264.64 92.09,279.54C99.88,272.21 110.19,267.73 121.52,267.73L159.17,267.73L159.17,253.56L125.14,253.56L125.14,253.57Z" style="fill-rule:nonzero;"/>
                </g>
                <g opacity="0.05">
                    <path d="M159.17,185.61L159.17,178.38C130.27,180.27 105.11,197.21 91.18,221.71L91.18,253.57C91.18,216.57 122.27,186.12 159.17,185.61Z" style="fill-opacity:0.5;fill-rule:nonzero;"/>
                    <path d="M125.14,253.57C109.63,253.57 96.56,263.95 92.47,278.14C100.12,270.45 110.54,265.71 122.04,265.71L159.17,265.71L159.17,253.57L125.14,253.57Z" style="fill-rule:nonzero;"/>
                </g>
                <g opacity="0.05">
                    <path d="M159.17,185.61L159.17,179.63C129.82,181.28 104.38,198.89 91.18,224.19L91.18,253.57C91.18,216.57 122.27,186.12 159.17,185.61Z" style="fill-opacity:0.5;fill-rule:nonzero;"/>
                    <path d="M125.14,253.57C110.15,253.57 97.44,263.27 92.91,276.74C100.39,268.7 110.9,263.69 122.56,263.69L159.17,263.69L159.17,253.57L125.14,253.57Z" style="fill-rule:nonzero;"/>
                </g>
                <g opacity="0.05">
                    <path d="M159.17,185.61L159.17,180.89C129.28,182.27 103.49,200.71 91.18,226.94L91.18,253.57C91.18,216.57 122.27,186.12 159.17,185.61Z" style="fill-opacity:0.5;fill-rule:nonzero;"/>
                    <path d="M125.14,253.57C110.66,253.57 98.31,262.62 93.4,275.37C100.67,266.97 111.26,261.67 123.07,261.67L159.16,261.67L159.16,253.57L125.13,253.57L125.14,253.57Z" style="fill-rule:nonzero;"/>
                </g>
                <g opacity="0.05">
                    <path d="M159.17,185.61L159.17,182.17C128.6,183.27 102.37,202.75 91.18,230.13L91.18,253.57C91.18,216.57 122.27,186.12 159.17,185.61Z" style="fill-opacity:0.5;fill-rule:nonzero;"/>
                    <path d="M125.14,253.57C111.19,253.57 99.21,261.98 93.96,274C100.97,265.24 111.63,259.65 123.58,259.65L159.16,259.65L159.16,253.58L125.13,253.58L125.14,253.57Z" style="fill-rule:nonzero;"/>
                </g>
            </g>
        </g>
    </g>
</svg>
